<?xml version="1.0" encoding="utf-8"?>
<!-- Generator: Adobe Illustrator 23.0.2, SVG Export Plug-In . SVG Version: 6.00 Build 0)  -->
<svg version="1.1" id="Layer_1" xmlns="http://www.w3.org/2000/svg" xmlns:xlink="http://www.w3.org/1999/xlink" x="0px" y="0px"
	 viewBox="0 0 24 24" style="enable-background:new 0 0 24 24;" xml:space="preserve">
<style type="text/css">
	.st0{fill:#7D7D7D;}
</style>
<path class="st0" d="M5.3,12.1c-0.4,0.3-0.7,0.6-0.9,0.9c-0.2,0.2-0.2,0.5-0.3,0.8h2.7v-0.7H5.4c0.1-0.1,0.2-0.2,0.2-0.2
	c0.1-0.1,0.2-0.1,0.4-0.3c0.3-0.2,0.5-0.4,0.6-0.6c0.1-0.2,0.2-0.4,0.2-0.6c0-0.2,0-0.4-0.2-0.5c-0.1-0.2-0.2-0.3-0.4-0.3
	c-0.2-0.1-0.4-0.1-0.7-0.1c-0.3,0-0.5,0-0.7,0.1c-0.2,0.1-0.3,0.2-0.4,0.3c-0.1,0.1-0.2,0.3-0.2,0.6l0.9,0.1c0-0.2,0.1-0.3,0.1-0.4
	c0.1-0.1,0.2-0.1,0.3-0.1c0.1,0,0.2,0,0.3,0.1c0.1,0.1,0.1,0.2,0.1,0.3c0,0.1,0,0.2-0.1,0.3C5.7,11.7,5.5,11.9,5.3,12.1z M5.3,18.4
	c-0.1,0-0.2,0-0.3-0.1C5,18.3,4.9,18.1,4.9,18L4,18.1c0.1,0.2,0.1,0.4,0.3,0.5c0.1,0.1,0.2,0.2,0.4,0.3C4.8,19,5.1,19,5.4,19
	c0.3,0,0.5,0,0.7-0.1c0.2-0.1,0.3-0.2,0.4-0.4c0.1-0.2,0.1-0.4,0.1-0.5c0-0.1,0-0.3-0.1-0.4c-0.1-0.1-0.1-0.2-0.2-0.3
	c-0.1-0.1-0.2-0.1-0.3-0.1c0.1-0.1,0.3-0.2,0.3-0.3c0.1-0.1,0.1-0.2,0.1-0.4c0-0.2-0.1-0.5-0.3-0.6c-0.2-0.2-0.5-0.2-0.9-0.2
	c-0.4,0-0.6,0.1-0.8,0.2C4.3,16,4.1,16.2,4,16.5l0.8,0.2c0-0.2,0.1-0.3,0.1-0.3s0.2-0.1,0.3-0.1c0.1,0,0.2,0,0.2,0.1
	c0.1,0.1,0.1,0.1,0.1,0.2c0,0.1,0,0.2-0.1,0.3s-0.2,0.1-0.3,0.1c0,0-0.1,0-0.1,0l0,0.6c0.1,0,0.2-0.1,0.3-0.1c0.1,0,0.2,0,0.3,0.1
	c0.1,0.1,0.1,0.2,0.1,0.4c0,0.1,0,0.3-0.1,0.4C5.6,18.4,5.5,18.5,5.3,18.4z M6.3,8.4V5H5.5C5.5,5.2,5.3,5.4,5.2,5.5
	C5,5.7,4.7,5.8,4.4,5.9v0.8c0.3-0.1,0.7-0.3,0.9-0.5v2.2L6.3,8.4L6.3,8.4z M9,6h11v2H9V6z M9,11h11v2H9V11z M9,16h11v2H9V16z"/>
</svg>
